# xmcd
#
# Track frame offsets: 
#        150
#        27251
#        47150
#        69937
#        97193
#        118622
#        140410
#        159361
#        176489
#        200691
#        216896
#        243194
#        256327
#        274158
#        295601
#        330135
#        353375
#
# Disc length: 4970 seconds
#
# Revision: 1
# Processed by: cddbd v1.5.2PL0 Copyright (c) Steve Scherf et al.
# Submitted via: ExactAudioCopy v1.3
#
DISCID=f0136811
DTITLE=Art Pepper - 1954-1962, CD 1 sur 6
DYEAR=1900
DGENRE=Jazz
TTITLE0=Blues In
TTITLE1=Bewitched, Bothered And Bewildered
TTITLE2=Stompin' At The Savoy
TTITLE3=What Is This Thing Called Love
TTITLE4=Blues Out
TTITLE5=When You're Smiling
TTITLE6=Cool Bunny
TTITLE7=Diane's Dilemma
TTITLE8=You'd Be So Nice To Come Home To
TTITLE9=Red Pepper Blues
TTITLE10=Imagination
TTITLE11=Waltz Me Blues
TTITLE12=Straight Life
TTITLE13=Jazz Me Blues
TTITLE14=Tin Tin Deo
TTITLE15=Star Eyes
TTITLE16=Birks Works
EXTD=
EXTT0=
EXTT1=
EXTT2=
EXTT3=
EXTT4=
EXTT5=
EXTT6=
EXTT7=
EXTT8=
EXTT9=
EXTT10=
EXTT11=
EXTT12=
EXTT13=
EXTT14=
EXTT15=
EXTT16=
PLAYORDER=
